<svg version="1.1" xmlns="http://www.w3.org/2000/svg" viewBox="0 0 37.809 37.808">
	<path fill="white" d="M37.403,24.665c-0.119-0.132-2.912-3.246-4.166-3.938c-0.346-0.189-0.653-0.265-1.125-0.377
		c-0.283-0.067-0.637-0.151-1.11-0.288c-0.185-0.054-0.408-0.146-0.654-0.248c-0.491-0.203-1.088-0.449-1.651-0.508
		c-0.104-0.363-0.258-1.228,0.254-2.271c0.338-0.29,2.063-1.812,2.66-3.229c0.319,0.234,0.842,0.503,1.649,0.653
		c0.36,0.364,1.804,1.687,2.916,0.765c0.256-0.207,0.64-0.519,0.644-1.041c0.004-0.485-0.338-1.008-1.041-1.599
		c-1.129-0.947-2.539-3.115-2.769-3.473l-0.401-1.949c-0.029-0.135-0.138-0.24-0.271-0.263c-0.141-0.024-0.273,0.04-0.346,0.159
		l-1.166,1.955c-0.732-0.027-3.152,0.214-6.748,3.781c-0.729,0.725-2.158,1.504-3.803,1.307c-0.354-0.042-0.833-0.044-1.345-0.047
		c-0.78-0.004-1.668-0.009-2.127-0.161l-0.131-0.043c-1.186-0.397-2.967-0.995-5.145,0.207c-0.979-0.105-7.787-0.621-9.932,5.072
		c-0.045,0.116-0.021,0.249,0.063,0.343s0.218,0.133,0.334,0.101c0.246-0.063,5.521-1.448,8.035-3.146
		c-0.235,0.441-0.662,1.475-0.606,3.148c0,0.005,0.012,0.581-1.863,1.709c-0.063,0.053-1.553,1.288-2.398,2.271
		c-0.232,0.271-0.758,0.657-1.266,1.029c-0.754,0.555-1.244,0.924-1.451,1.251c-0.111,0.018-0.227,0.022-0.289,0.015
		c-0.049-0.094-0.141-0.16-0.25-0.176c-0.42-0.062-1.305,0.085-1.605,1.062c-0.153,0.194-0.44,0.641-0.217,1.012
		c0.141,0.237,0.412,0.315,0.728,0.315c0.26,0,0.551-0.055,0.823-0.118c0.023-0.008,0.515-0.171,0.894-0.41
		c0.565,0.075,1.502-0.054,1.871-0.995c0.332-0.318,2.157-2.034,3.815-2.885l0.045-0.023c-0.172,0.519-0.356,1.263-0.377,2.108
		l-0.067,2.886c-0.017,0.1-0.021,0.298,0.11,0.521c0.195,0.329,0.607,0.578,1.228,0.74c-0.004,0.021-0.006,0.042-0.006,0.064
		c-0.009,0.302,0.262,0.556,0.965,0.906c0.056,0.027,0.229,0.055,0.438,0.055c0.354,0,0.816-0.076,1.017-0.354
		c0.142-0.194,0.213-0.522-0.228-0.986c-0.123-0.276-0.66-1.337-1.61-1.54l-0.089-1.631c0-0.02,0.115-1.87,1.445-2.108
		c0.18-0.033,0.398-0.039,0.639-0.049c0.99-0.037,2.466-0.104,2.972-1.805c0.373-0.154,0.722-0.336,1.043-0.546
		c0.399,0.215,2.313,1.156,5.042,1.156c1.44,0,3.104-0.266,4.879-1.043c0.014-0.005,0.016-0.021,0.022-0.025
		c0.138,0.021,0.271,0.044,0.416,0.062c0.699,0.931,3.981,5.299,4.787,6.104c0.115,0.562,0.487,1.374,1.291,1.435
		c-0.037,0.241-0.032,0.526,0.119,0.763c0.112,0.179,0.354,0.392,0.844,0.392h1.173c0.006,0,0.016,0,0.024,0
		c0.142,0,0.592-0.029,0.741-0.397c0.173-0.427-0.229-0.868-0.586-1.196c-0.022-0.022-2.336-2.326-3.188-3.562
		c-0.256-0.367-0.577-0.951-0.922-1.569c-0.373-0.677-0.756-1.362-1.104-1.875c0.604,0.014,1.5,0.055,2.313,0.184
		c0.44,0.069,1.086,0.422,1.709,0.764l0.201,0.109c0.198,0.337,0.87,1.386,1.731,1.65c-0.02,0.236,0.004,0.543,0.187,0.797
		c0.135,0.188,0.407,0.41,0.952,0.41c0,0,0,0,0.002,0l0.818-0.034c0.211-0.022,0.49-0.146,0.586-0.417
		C37.924,25.183,37.522,24.783,37.403,24.665z M11.697,23.576c-0.273,0.011-0.527,0.021-0.734,0.059
		c-1.854,0.335-1.99,2.639-1.994,2.771l0.103,1.951c0.01,0.179,0.158,0.317,0.336,0.317c0.83,0,1.334,1.207,1.34,1.22
		c0.017,0.041,0.041,0.079,0.072,0.11c0.086,0.085,0.131,0.146,0.155,0.188c-0.149,0.055-0.485,0.071-0.563,0.071c0,0,0,0-0.002,0
		c-0.313-0.156-0.473-0.266-0.549-0.327c0-0.014,0.002-0.027,0.002-0.042c0-0.182-0.022-0.438-0.231-0.566
		c-0.049-0.028-0.113-0.046-0.181-0.051c-0.813-0.186-0.979-0.46-0.979-0.517c0.007-0.027,0.013-0.058,0.013-0.085l0.069-2.914
		c0.029-1.398,0.588-2.549,0.595-2.561c0-0.002-0.002-0.004,0-0.007c0.334-0.143,0.678-0.243,0.932-0.176
		c0.834,0.218,2.337,0.143,3.755-0.271C13.355,23.502,12.486,23.547,11.697,23.576z M30.75,25.966
		c0.891,1.285,3.172,3.56,3.276,3.665c0.236,0.216,0.34,0.354,0.385,0.432c-0.028,0.005-0.059,0.008-0.092,0.007h-1.182
		c-0.084,0-0.232-0.012-0.279-0.083c-0.078-0.122-0.006-0.438,0.076-0.622c0.049-0.107,0.037-0.233-0.031-0.332
		c-0.067-0.098-0.184-0.158-0.301-0.142l-0.354,0.029c-0.552,0-0.72-0.979-0.722-0.989c-0.014-0.084-0.059-0.162-0.125-0.214
		c-0.358-0.278-2.727-3.359-4.408-5.595c0.438,0.023,0.912,0.03,1.437,0.015c0.382,0.432,0.902,1.364,1.365,2.203
		C30.146,24.971,30.476,25.57,30.75,25.966z M36.358,25.383c-0.199,0-0.332-0.044-0.396-0.13c-0.106-0.146-0.06-0.452-0.021-0.575
		c0.035-0.104,0.019-0.215-0.045-0.302c-0.062-0.088-0.164-0.14-0.272-0.14c-0.642,0-1.38-1.076-1.587-1.453
		c-0.03-0.057-0.077-0.104-0.135-0.133l-0.285-0.155c-0.702-0.385-1.366-0.749-1.924-0.837c-1.418-0.226-3.051-0.196-3.125-0.194
		c-0.869,0.034-1.604,0.007-2.223-0.061c-0.021-0.005-0.037-0.007-0.057-0.008c-2.613-0.301-3.152-1.323-3.193-1.408
		c-0.006-0.023-0.02-0.047-0.031-0.068c-0.092-0.157-0.295-0.209-0.451-0.121c-0.137,0.074-0.201,0.235-0.157,0.386
		c0.002,0.015,0.299,0.964,2.098,1.537c-3.916,1.377-7.174,0.191-8.217-0.278c0.765-0.702,1.115-1.565,0.996-2.512
		c-0.022-0.184-0.184-0.316-0.375-0.292c-0.186,0.023-0.313,0.191-0.291,0.375c0.094,0.75-0.186,1.417-0.83,1.982
		c-1.438,1.264-4.338,1.695-5.592,1.369c-0.705-0.182-1.562,0.279-2.129,0.583l-0.211,0.111c-1.914,0.982-3.947,2.972-4.033,3.056
		c-0.037,0.037-0.064,0.081-0.082,0.13c-0.272,0.799-1.166,0.633-1.27,0.61c-0.096-0.021-0.191,0-0.27,0.057
		c-0.298,0.217-0.806,0.391-0.802,0.391c-0.455,0.104-0.668,0.1-0.767,0.085c0.031-0.075,0.103-0.188,0.173-0.271
		c0.03-0.038,0.057-0.083,0.067-0.132c0.146-0.535,0.523-0.638,0.742-0.648c0.029,0.029,0.063,0.057,0.098,0.08
		c0.316,0.195,0.841,0.08,0.992,0.042c0.119-0.031,0.211-0.119,0.24-0.238c0.076-0.198,0.811-0.736,1.295-1.093
		c0.563-0.413,1.094-0.805,1.377-1.134c0.801-0.934,2.283-2.162,2.275-2.162c2.104-1.26,2.199-2.073,2.137-2.373
		c-0.049-1.917,0.631-2.868,0.631-2.868c0.293-0.369,0.568-0.79,0.355-1.114c-0.148-0.224-0.428-0.243-0.643-0.184
		c-0.056,0.015-0.105,0.043-0.146,0.083c-1.526,1.479-6.069,2.875-7.789,3.365c2.39-4.901,8.987-4.013,9.058-4.003
		c0.073,0.011,0.147-0.002,0.215-0.041c1.959-1.124,3.541-0.594,4.694-0.208l0.132,0.043c0.562,0.186,1.465,0.191,2.336,0.195
		c0.489,0.002,0.953,0.004,1.268,0.042c1.877,0.222,3.479-0.626,4.355-1.498c3.992-3.962,6.365-3.578,6.387-3.575
		c0.141,0.028,0.283-0.034,0.355-0.156l0.832-1.396l0.24,1.165c0.008,0.039,0.022,0.077,0.045,0.111
		c0.063,0.104,1.627,2.583,2.938,3.68c0.701,0.587,0.803,0.929,0.801,1.08c0,0.191-0.164,0.338-0.447,0.57
		c-0.709,0.58-2.012-0.812-2.024-0.827c-0.05-0.055-0.119-0.092-0.19-0.104c-1.334-0.223-1.748-0.805-1.748-0.806
		c-0.074-0.116-0.209-0.18-0.349-0.149c-0.135,0.026-0.239,0.133-0.267,0.269c-0.217,1.182-1.991,2.88-2.655,3.435
		c-0.035,0.029-0.063,0.065-0.084,0.105c-0.861,1.688-0.257,3.042-0.229,3.098c0.055,0.118,0.174,0.194,0.305,0.194
		c0.498,0,1.104,0.25,1.639,0.47c0.271,0.111,0.52,0.214,0.725,0.271c0.488,0.141,0.853,0.228,1.142,0.297
		c0.444,0.105,0.69,0.166,0.956,0.312c1.154,0.636,3.964,3.766,4.005,3.811c0.104,0.104,0.155,0.178,0.188,0.226L36.358,25.383z"/>
</svg>
